<svg width="255" height="294" viewBox="0 0 255 294" fill="none" xmlns="http://www.w3.org/2000/svg">
<path fill-rule="evenodd" clip-rule="evenodd" d="M392.03 107.417C409.259 128.51 358.265 149.107 344.838 172.793C334.408 191.192 342.296 225.684 321.901 231.123C294.329 238.476 270.389 190.93 243.29 199.873C218.012 208.215 227.343 253.747 205.817 269.433C184.159 285.216 143.442 305.851 127.834 284.007C107.526 255.587 166.323 207.66 143.066 181.612C114.27 149.36 49.5331 188.493 17.0753 159.954C-6.86501 138.904 -0.67793 95.2219 11.1009 65.5796C22.8698 35.9623 57.0387 23.2631 80.1056 1.33354C101.981 -19.4637 116.675 -48.7306 144.231 -60.9869C172.096 -73.3806 212.083 -88.1937 234.336 -67.2647C264.571 -38.828 253.38 12.0504 264.472 52.0999C268.211 65.6025 265.41 85.6922 278.236 91.254C313.853 106.7 367.434 77.3056 392.03 107.417Z" fill="#CFA377"/>
</svg>
