<svg width="1385" height="1308" viewBox="0 0 1385 1308" fill="none" xmlns="http://www.w3.org/2000/svg">
<path fill-rule="evenodd" clip-rule="evenodd" d="M496.919 233.128C658.22 256.229 839.163 77.2922 971.037 165.319C1105.64 255.164 984.28 468.935 1056.16 606.423C1130.23 748.094 1376.75 799.865 1384.79 956.724C1392.54 1107.8 1184.39 1186.15 1092.33 1311.79C982.959 1461.06 975.655 1696.35 793.511 1763.71C613.972 1830.12 430.576 1675.24 244.779 1625.27C59.0864 1575.32 -203.187 1624.27 -298.232 1470.07C-398.808 1306.9 -194.618 1116.58 -184.068 929.522C-176.339 792.465 -260.248 666.588 -245.216 530.039C-225.222 348.407 -266.201 87.4791 -83.319 14.312C112.316 -63.957 285.953 202.913 496.919 233.128Z" fill="#1B3151" fill-opacity="0.14"/>
</svg>
