<svg width="161" height="108" viewBox="0 0 161 108" fill="none" xmlns="http://www.w3.org/2000/svg">
<path d="M57.6133 103V97.0039H52.0469V103H50.2695V90.207H52.0469V95.5H57.6133V90.207H59.3711V103H57.6133ZM69.6836 103.195L68.4922 99.4258H64L62.8477 103.195L61.207 103L65.4648 89.9141H67.0664L71.3828 102.922L69.6836 103.195ZM66.2461 91.9844L64.4297 98.0391H68.1016L66.2461 91.9844ZM84.5664 103V92.7852L80.6797 103.02H79.0195L75.0938 92.707V103H73.4531V90.168H75.9922L79.957 100.461L84 90.168H86.3438V103H84.5664ZM92.125 103.039C91.7865 103.039 91.2786 103.026 90.6016 103C89.9245 102.974 89.4232 102.961 89.0977 102.961V90.1289C90.0221 90.0898 90.9922 90.0638 92.0078 90.0508C94.2604 90.0508 95.901 90.5651 96.9297 91.5938C97.9583 92.6224 98.4792 94.2695 98.4922 96.5352C98.5052 98.6185 97.9648 100.227 96.8711 101.359C95.7904 102.479 94.2083 103.039 92.125 103.039ZM96.5977 96.7695C96.5977 93.1497 95.2435 91.3398 92.5352 91.3398C92.1445 91.3398 91.5911 91.3529 90.875 91.3789V101.516H92.6719C93.9349 101.516 94.918 101.021 95.6211 100.031C96.2721 99.1589 96.5977 98.0716 96.5977 96.7695ZM100.387 103V90.168H102.164V103H100.387Z" fill="#FAF0E6"/>
<path d="M93.396 54.704C93.396 55.776 93.329 56.8927 93.195 58.054H67.266C67.4447 60.3767 68.1817 62.1633 69.477 63.414C70.817 64.62 72.4473 65.223 74.368 65.223C77.2267 65.223 79.2143 64.017 80.331 61.605H92.525C91.8997 64.0617 90.7607 66.2727 89.108 68.238C87.5 70.2033 85.4677 71.7443 83.011 72.861C80.5543 73.9777 77.8073 74.536 74.77 74.536C71.1073 74.536 67.8467 73.7543 64.988 72.191C62.1293 70.6277 59.896 68.3943 58.288 65.491C56.68 62.5877 55.876 59.193 55.876 55.307C55.876 51.421 56.6577 48.0263 58.221 45.123C59.829 42.2197 62.0623 39.9863 64.921 38.423C67.7797 36.8597 71.0627 36.078 74.77 36.078C78.388 36.078 81.604 36.8373 84.418 38.356C87.232 39.8747 89.4207 42.041 90.984 44.855C92.592 47.669 93.396 50.952 93.396 54.704ZM81.671 51.689C81.671 49.7237 81.001 48.1603 79.661 46.999C78.321 45.8377 76.646 45.257 74.636 45.257C72.7153 45.257 71.085 45.8153 69.745 46.932C68.4497 48.0487 67.6457 49.6343 67.333 51.689H81.671ZM97.1621 55.24C97.1621 51.3987 97.8768 48.0263 99.3061 45.123C100.78 42.2197 102.768 39.9863 105.269 38.423C107.77 36.8597 110.562 36.078 113.644 36.078C116.101 36.078 118.334 36.5917 120.344 37.619C122.399 38.6463 124.007 40.031 125.168 41.773V24.42H136.625V74H125.168V68.64C124.096 70.4267 122.555 71.856 120.545 72.928C118.58 74 116.279 74.536 113.644 74.536C110.562 74.536 107.77 73.7543 105.269 72.191C102.768 70.583 100.78 68.3273 99.3061 65.424C97.8768 62.476 97.1621 59.0813 97.1621 55.24ZM125.168 55.307C125.168 52.4483 124.364 50.1927 122.756 48.54C121.193 46.8873 119.272 46.061 116.994 46.061C114.716 46.061 112.773 46.8873 111.165 48.54C109.602 50.148 108.82 52.3813 108.82 55.24C108.82 58.0987 109.602 60.3767 111.165 62.074C112.773 63.7267 114.716 64.553 116.994 64.553C119.272 64.553 121.193 63.7267 122.756 62.074C124.364 60.4213 125.168 58.1657 125.168 55.307ZM150.676 32.728C148.666 32.728 147.013 32.1473 145.718 30.986C144.467 29.78 143.842 28.306 143.842 26.564C143.842 24.7773 144.467 23.3033 145.718 22.142C147.013 20.936 148.666 20.333 150.676 20.333C152.641 20.333 154.249 20.936 155.5 22.142C156.795 23.3033 157.443 24.7773 157.443 26.564C157.443 28.306 156.795 29.78 155.5 30.986C154.249 32.1473 152.641 32.728 150.676 32.728ZM156.371 36.614V74H144.914V36.614H156.371Z" fill="#FAF0E6"/>
<rect y="6" width="65" height="18" rx="7" fill="#5C5470"/>
<rect y="32" width="42" height="18" rx="7" fill="#818FB4"/>
<rect y="60" width="18" height="18" rx="9" fill="#FAF0E6"/>
<line y1="96.5" x2="46" y2="96.5" stroke="white"/>
<path d="M108 97H154" stroke="white"/>
</svg>
