<svg width="932" height="1048" viewBox="0 0 932 1048" fill="none" xmlns="http://www.w3.org/2000/svg">
<path fill-rule="evenodd" clip-rule="evenodd" d="M392.196 154.938C490.24 170.292 600.223 51.3689 680.38 109.872C762.194 169.584 688.43 311.657 732.12 403.032C777.141 497.188 926.983 531.596 931.872 635.845C936.581 736.25 810.06 788.324 754.104 871.827C687.627 971.031 683.187 1127.4 572.474 1172.18C463.345 1216.31 351.871 1113.38 238.938 1080.16C126.068 1046.97 -33.3503 1079.5 -91.1218 977.02C-152.255 868.576 -28.1419 742.087 -21.7295 617.766C-17.0311 526.678 -68.034 443.019 -58.8972 352.268C-46.7438 231.554 -71.6526 58.1392 39.5092 9.51186C158.422 -42.5063 263.964 134.857 392.196 154.938Z" fill="#140303" fill-opacity="0.71"/>
</svg>
