<svg width="371" height="494" viewBox="0 0 371 494" fill="none" xmlns="http://www.w3.org/2000/svg">
<path fill-rule="evenodd" clip-rule="evenodd" d="M114.129 4.04752C163.551 39.9016 101.454 156.048 157.518 180.112C217.124 205.696 266.783 86.965 330.822 97.0557C371.022 103.39 361.161 172.316 365.73 212.921C370.019 251.03 378.533 294.765 356.603 326.164C333.49 359.257 283.044 356.546 249.653 379.119C227.273 394.247 219.853 430.027 193.618 436.342C166.313 442.914 140.967 403.45 114.129 411.739C70.6214 425.176 52.4956 495.46 7.00075 493.977C-29.1965 492.797 -58.7526 442.413 -55.2325 406.217C-50.5947 358.529 47.4791 333.78 26.7786 290.609C-1.53545 231.561 -112.575 264.469 -149.209 210.23C-172.535 175.695 -139.21 119.157 -105.588 94.6335C-69.9464 68.6369 -16.3075 100.371 24.4429 83.5704C61.8043 68.1669 81.3909 -19.7029 114.129 4.04752Z" fill="#FAF0E6" fill-opacity="0.35"/>
</svg>
